<svg xmlns="http://www.w3.org/2000/svg" width="262.931" height="638.996" viewBox="0 0 262.931 638.996">
  <g id="Group_13" data-name="Group 13" transform="translate(-610.161 -285.835)">
    <path id="Path_61" data-name="Path 61" d="M847.879,791.917q-2.561-11.1-5.125-22.2c-.366-1.575-.786-3.137-1.205-4.7-1.2-4.476-2.387-8.959-3.645-13.417-.876-3.108-1.917-6.162-2.782-9.273A51.922,51.922,0,0,1,832.939,731c-.193-3.792-.934-7.549-1.245-11.339-.37-4.5-.54-9.021-.792-13.532-.216-3.878-.461-7.754-.627-11.633-.136-3.179-.162-6.362-.26-9.542-.158-5.161-.392-10.319-.481-15.481-.058-3.387.2-6.782.106-10.166-.127-4.515-.468-9.022-.7-13.534-.26-5-.461-10-.768-15-.326-5.289-.749-10.571-1.125-15.857-.276-3.874-.5-7.753-.832-11.621q-.639-7.389-1.428-14.763c-.677-6.313-1.282-12.642-2.193-18.918-.655-4.5-1.711-8.946-2.682-13.392-.764-3.493-1.671-6.95-2.516-10.423a30.524,30.524,0,0,0-7.182-13.891,17.818,17.818,0,0,0-6.758-4.176,160.614,160.614,0,0,0-19-6.533c-3.129-.816-6.356-1.181-9.516-1.869-4.773-1.04-9.558-2.053-14.278-3.327-3.547-.958-7-2.308-10.5-3.488-.123-.042-.278-.216-.345-.178-1.679.95-2.915-.353-4.249-1a9.938,9.938,0,0,1-3.415-3.452c.2-.1.41-.188.786-.357l-1.629-1.761-.251.27,1.153,1.908a13,13,0,0,1-4.078-4.164,15.875,15.875,0,0,1-2.164-6c-.122-.616-.313-1.218-.494-1.819-.2-.655-.6-1.276-.07-1.986.1-.131-.067-.7-.1-.7-.866.019-.8-.751-.983-1.3-.2-.6.474-.952.478-1.2a18.619,18.619,0,0,0-.388-3.12c-.074-.481-.383-1.054-.232-1.418.9-2.182.021-4.312-.084-6.451-.1-1.953-.421-3.893-.682-6.159l-.943,1.058a4.2,4.2,0,0,1-.246-.928,26.824,26.824,0,0,1,.068-2.751,7.988,7.988,0,0,0-.807-5.056l.958.628c.307-2.049.583-3.892.859-5.736l-.4-.1c-.211.712-.393,1.437-.642,2.134-.228.639-.528,1.247-.8,1.869.249-1.019.509-2.035.746-3.058a25.628,25.628,0,0,1,3.86-8.68,33.682,33.682,0,0,0,4.294-9.259c.834-2.825,1.744-5.625,2.669-8.418a98.206,98.206,0,0,0,4.053-16.02c.384-2.511.961-4.989,1.316-7.5.512-3.633.945-7.281,1.331-10.932.557-5.262,1.187-10.523,1.518-15.8.359-5.735-.334-11.443-.938-17.138-.052-.491-.143-.981-.16-1.473-.059-1.706-.087-3.415-1.232-4.592.3-.606.769-1.135.665-1.428-.747-2.1-1.607-4.162-2.441-6.23a6.237,6.237,0,0,1-.505-1.086,26.25,26.25,0,0,0-4.53-10.692,2.957,2.957,0,0,0-.354-.51c-2.623-2.348-5.04-5.069-7.936-6.934a28.735,28.735,0,0,0-11.942-4.839c-3.792-.46-7.594-.949-11.4-1.094a25.174,25.174,0,0,0-6.253.853A52.933,52.933,0,0,0,693,333.245c-.783.365-1.631.565-2.425.907-.938.4-2.007.552-2.4,1.906-.129.444-.949.658-1.452.979-1.973,1.26-3.948,2.516-5.914,3.789a1.983,1.983,0,0,0-.564.582c-1.652,2.556-3.314,5.105-4.917,7.7-.373.6-.883,1.225-.442,2.139a1.741,1.741,0,0,1-.3,1.326,24.342,24.342,0,0,0-3.076,7.509c-.349,1.357-.758,2.7-1.14,4.046-.813,2.872-.654,5.859-.96,8.79-.536,5.132.207,10.127.793,15.162.448,3.856.725,7.736,1.229,11.583.512,3.916,1.2,7.806,1.829,11.7.338,2.085.681,4.171,1.1,6.237.466,2.272.9,4.564,1.575,6.77,1.164,3.827,2.385,7.644,3.8,11.369a62.81,62.81,0,0,0,3.237,6.544c.833,1.6,1.693,3.191,2.629,4.724.528.864,1.28,1.568,1.846,2.409a12.889,12.889,0,0,1,1.28,2.348c.627,1.558,1.173,3.129,2.584,4.145a2.123,2.123,0,0,1,.578,1.272c.6,3.6,1.317,7.2,1.664,10.832a42.163,42.163,0,0,1-.332,6.523,5.116,5.116,0,0,0-.111,1.468c.7,2.7-.272,5.242-.5,7.856-.26,2.956-.335,5.932-.485,8.9a4.115,4.115,0,0,1-.73,2.76,5.183,5.183,0,0,0-.821,2.132,10.641,10.641,0,0,1-2.152,4.866c-1.294,1.487-2.229,3.325-3.446,4.9-1.5,1.943-3.689,2.847-5.72,3.955a138.171,138.171,0,0,1-16.107,7.543c-3.223,1.251-6.484,2.313-9.738,3.436-6.19,2.137-12.461,4-18.339,7.164a61.54,61.54,0,0,0-14.74,11.462,18.454,18.454,0,0,0-3.436,5.327,30.965,30.965,0,0,0-2.119,8.095c-.306,1.876-.785,3.722-1.239,5.567a155.532,155.532,0,0,0-4.266,29.926c-.335,7.127-.237,14.277-.415,21.415-.1,4.1-.455,8.192-.535,12.291-.075,3.873.066,7.751.1,11.627.018,1.981-.046,3.965.034,5.942.132,3.232.375,6.459.53,9.69.214,4.443.5,8.886.548,13.332.041,3.662-.265,7.326-.322,10.991-.067,4.235,0,8.471-.044,12.706-.06,5.585-.095,11.173-.288,16.755-.215,6.218-.5,12.439-.953,18.642a33.889,33.889,0,0,1-1.142,6.785c-.677,2.394-.66,5.006-1.036,7.508-.755,5.025-1.535,10.047-2.369,15.059q-1.926,11.58-3.941,23.145c-1.054,6.112-2.172,12.211-3.19,18.33a40.418,40.418,0,0,0-.418,5.071q-.264,6.891-.427,13.788a6.546,6.546,0,0,0,.62,3.9,1.931,1.931,0,0,1-.114,1.72c-.727.873-.367,1.7-.236,2.576s.284,1.771.346,2.664c.192,2.818.387,5.637.505,8.459.132,3.178.183,6.36.264,9.541a3.4,3.4,0,0,0-.029.842c.705,2.26.107,4.571.258,6.851.154,2.322.2,4.651.3,6.976.006.142,0,.284.011.425.585,7.536,1.109,15.079,1.776,22.607.543,6.122,1.5,12.212,1.82,18.343.279,5.374.879,10.678,1.6,15.988.369,2.722.472,5.485.827,8.209.189,1.451.693,2.852,1,4.29a30.751,30.751,0,0,1,.474,7.118c-.065,2.678-.087,5.372-.39,8.024-.269,2.353-.989,4.642-1.347,6.987-.575,3.763-1.018,7.548-1.509,11.324a5.206,5.206,0,0,0,.017.635c0,.733.261,1.815-.078,2.118-.521.465-1.455.416-2.22.538a3.733,3.733,0,0,1-.973-.168c.066-1.5.023-2.976.215-4.42.512-3.837,1.106-7.662,1.707-11.485.251-1.6.589-3.182.91-4.767.8-3.954.2-7.886-.157-11.819-.235-2.6-.524-5.2-.8-7.8-.661-6.3-1.4-12.6-1.965-18.918-.347-3.867-.361-7.767-.654-11.641-.421-5.561-1-11.108-1.433-16.669-.258-3.311-.3-6.643-.557-9.954-.218-2.8-.658-5.582-.914-8.381-.3-3.235-.478-6.482-.745-9.72-.4-4.924-.806-9.85-1.284-14.767a18.525,18.525,0,0,1,.1-4.595,45.388,45.388,0,0,0,.078-6.53l-.468-.005V826.7h-.176c0-3.888-.079-7.778.022-11.663s.317-7.776.6-11.654c.31-4.217.765-8.422,1.142-12.633a30.446,30.446,0,0,1,.219-3.157c1.325-6.68,2.759-13.336,4.051-20.023,1.16-6.005,2.143-12.05,3.279-18.062,1.429-7.566,2.136-15.23,2.837-22.9.181-1.968.581-3.914.738-5.883a197.052,197.052,0,0,0,.2-22.683c-.154-4.3.217-8.626.19-12.938-.066-10.682-.227-21.363-.349-32.044-.093-8.2-.351-16.408-.229-24.607.106-7.134.468-14.277,1.049-21.385.375-4.6.092-9.178.33-13.763.175-3.376.075-6.767.152-10.149a10.009,10.009,0,0,1,.406-2.5,24.849,24.849,0,0,0,.671-6.081,43.57,43.57,0,0,1,1.044-8.778c.993-4.1,1.6-8.306,2.53-12.427,1.929-8.584,5.747-16.016,12.621-21.108,3.614-2.678,7.675-4.672,11.577-6.889,4.294-2.44,9.054-3.473,13.668-4.9a94.766,94.766,0,0,0,10.234-3.841,49.543,49.543,0,0,1,7.11-2.561,34.444,34.444,0,0,0,17.377-11.215,23.436,23.436,0,0,0,5.744-14.076,146.449,146.449,0,0,0-.323-23.3,29.11,29.11,0,0,0-1.986-9.456,43.366,43.366,0,0,0-3.81-7.072,49.467,49.467,0,0,1-2.723-4.92,45.627,45.627,0,0,1-2.129-4.055c-.989-2.379-1.854-4.82-2.724-7.254-1.222-3.418-2.4-6.854-3.645-10.416-.538.038-1.19.042-1.829.137-1.6.239-1.588.248-2.383-1.29a30.578,30.578,0,0,1-3.017-10.227c-.227-1.728-.924-3.38-1.26-5.1a51.157,51.157,0,0,1-.937-6.268,6.28,6.28,0,0,1,4.9-6.562c-.3-2.756-.663-5.519-.9-8.294a72.311,72.311,0,0,1,.1-14.381,118.436,118.436,0,0,1,2.912-14.484c1.327-5.469,4.046-10.09,7.177-14.5.159-.225.364-.414.517-.643,3.62-5.44,8.612-8.951,14.165-11.727a65.613,65.613,0,0,1,8.279-3.444c4.846-1.649,9.752-1.57,14.675-1,3.2.374,6.353,1.215,9.544,1.716a18.322,18.322,0,0,1,6.882,2.521c2.614,1.619,5.176,3.348,7.678,5.161,1.549,1.123,2.494,3.126,4.566,3.547.328.067.58.72.812,1.138.53.958,1.068,1.916,1.526,2.914.691,1.506,1.322,3.044,1.97,4.573,1.254,2.96,2.648,5.863,3.719,8.9a52.62,52.62,0,0,1,3.119,18.027c-.03,3.818-.146,7.638-.054,11.452.071,2.948.406,5.888.636,9,.593,0,1.156.016,1.719,0,1.558-.051,2.187.363,2.587,1.971a20.633,20.633,0,0,1,.111,7.583c-.3,2.45-.636,4.9-1.108,7.319-.512,2.623-1.151,5.22-1.836,7.8a12.347,12.347,0,0,1-1.122,2.3c-3.1-.347-3.5-.7-4.19-3.6a7.279,7.279,0,0,0-.51,1.182c-.648,2.953-1.212,5.929-1.912,8.867-1.482,6.227-2.955,12.449-5.688,18.249a26.991,26.991,0,0,0-1.617,5.861,14.416,14.416,0,0,1-2.107,5.613,3.261,3.261,0,0,0-.51,1.364,75.675,75.675,0,0,0-.845,18.53,47.926,47.926,0,0,1,.452,8.04,42.145,42.145,0,0,0,.919,10.079,12.621,12.621,0,0,0,.915,2.527,6.634,6.634,0,0,1,.6,1.33,9.1,9.1,0,0,0,4.132,6.173c1.4,1.022,2.3,2.874,4.1,3.194,3.556.63,6.59,2.827,10.04,3.707,1.458.371,3.015.269,4.512.5a10.77,10.77,0,0,1,1.961.746,14.1,14.1,0,0,0,2.04.694c3.37.676,6.762,1.232,10.12,1.97,3.477.764,6.924,1.69,10.386,2.546-.246.055-.494.109-1.041.227l1.968.669-.989-.95c1.594.37,3.21.657,4.778,1.13,2.582.779,5.152,1.617,7.688,2.551,1.41.52,2.742,1.283,4.1,1.933q-1.692-.455-3.377-.9l-1.321-.819-.152.469,1.51.3c1.034,1.308,2.514,1.546,4.03,2.12l-.239-.829a48.457,48.457,0,0,1,5.242,3.346,27.8,27.8,0,0,1,7.3,8.237,27.488,27.488,0,0,1,2.958,7.361,26.51,26.51,0,0,1,.758,4.3,19.174,19.174,0,0,0,.975,3.86,62.464,62.464,0,0,1,1.707,6.721c1.032,7.055,1.871,14.142,2.823,21.21.593,4.406,1.515,8.779,1.825,13.205.454,6.479,1.953,12.862,1.518,19.428-.094,1.424-.218,2.976.794,4.256.2.26.109.808.122,1.225.236,7.211.3,14.434.741,21.631.58,9.541.48,19.087.631,28.632.056,3.531.417,7.054.532,10.585q.208,6.466.23,12.938c.032,7.083.713,14.113,1.428,21.139.322,3.159.792,6.3,1.212,9.447.4,2.979.65,6,1.274,8.922.657,3.075,1.705,6.053,2.53,9.089.423,1.556.682,3.163,1.1,4.72,1.726,6.379,3.5,12.741,5.221,19.123.4,1.491.654,3.029.957,4.55,1.367,6.843,2.831,13.666,4.057,20.537.952,5.339,1.621,10.736,2.388,16.112,1.593,11.174,1.555,22.417,1.088,33.664-.42,10.1-.946,20.193-1.847,30.263a284.992,284.992,0,0,0-1.39,30.9c.008.423-.039.847-.053,1.271a92.626,92.626,0,0,0-.222,9.724c.192,2.729-.2,5.5-.222,8.254a75.292,75.292,0,0,0,.688,13.323c.438,2.562.565,5.185.861,7.777a6.422,6.422,0,0,0,.378,1.2c-.28.194-.8.386-.8.582,0,.714-.283,1.6.7,2.23l.087-1.39c.236.988.708,1.9-.117,2.954-.282.358.114,1.325.194,2.015.175,1.514.346,3.029.578,5.06l.847-1.32c.331,3.943.66,7.854,1.005,11.957h-2.877c-.084-.463-.2-.987-.272-1.518-.623-4.754-1.221-9.512-1.861-14.263a31.139,31.139,0,0,0-.858-4.995c-1.125-3.654-1.328-7.451-1.793-11.209-.147-1.186-.121-2.4-.271-3.584-.14-1.1-.421-2.181-.619-3.275a8.449,8.449,0,0,1-.215-1.657c.145-7.14-.1-14.329.612-21.4.549-5.406.73-10.823,1.2-16.223.47-5.417.515-10.876,1-16.291.6-6.681,1.46-13.335,2.217-20a122.107,122.107,0,0,0,.591-17.368c-.163-5.579-.257-11.183-.853-16.717-.709-6.588-1.926-13.113-2.912-19.666-.147-.974-.236-1.958-.351-2.935L848.8,793l-.451-2.319-.4.055Q847.914,791.328,847.879,791.917Zm-6.116-27.76a1.994,1.994,0,0,0-.615-2.351c.275,1.009.454,1.668.633,2.326l1.009,3.353C842.632,766.308,842.951,764.93,841.763,764.157ZM671.515,419.4a4.772,4.772,0,0,0,.041-.887c-.62-4.106-1.261-8.208-1.881-12.314-.42-2.784-.858-5.567-1.2-8.363a1.64,1.64,0,0,0-1.363-1.541c-.808-.24-1.191.316-1.587.915a5,5,0,0,0-.7,3.823c.6,3.171,1.241,6.333,1.849,9.5.171.892.324,1.793.412,2.7a10.269,10.269,0,0,0,2.193,5.35A1.726,1.726,0,0,0,671.515,419.4Zm82.379-2.345a26.82,26.82,0,0,0,2.052-4.741c.71-3.3,1.166-6.665,1.615-10.02a31.488,31.488,0,0,0,.181-4.641c-.02-1.3-.575-1.995-1.361-2-.763,0-1.58.97-1.692,2.023a2.654,2.654,0,0,0-.005.636c.635,4.384-.737,8.428-2.11,12.376C751.689,413.232,752.7,414.882,753.894,417.051Zm99.337,436.28-.418-.077-1.377,17.474.446.038Q852.557,862.048,853.231,853.331Zm-3.33,65.315a22.1,22.1,0,0,0,0-9.373Zm3.569-110.555-.587.109q.354,3.714.707,7.428l.331-.026Q853.695,811.848,853.47,808.091Zm.392,34.787-.421-.052q-.18,2.145-.358,4.291l.234.025Zm-5.986,77.627-.433-.041c-.572,1.528.129,3.009.433,4.511Zm2.7-22.793-.255-.007v4.743h.255Zm-5.832-120.976.408-.045q-.441-1.806-.881-3.611l-.345.094Q844.339,774.955,844.747,776.736Zm6.28,171.01c-.242,1.957-.126,2.435.683,3.4C851.453,949.867,851.24,948.807,851.027,947.746ZM596.732,785.4c.326-1.027,1.131-1.927.5-3.49C597.02,783.4,596.876,784.4,596.732,785.4ZM772.58,515.009l-.076.409,2.364.537.059-.333Zm74.55,259.162.3-.092-.465-1.6-.231.068Q846.933,773.359,847.13,774.171ZM678.993,510.258l.261.433c.561-.165,1.137-.312,1.284-1.557Zm146.435,80.39.341-.021-.1-1.848-.24.02Zm27.7,260.42.134,0v-1.735l-.134,0Zm-4.774,41.284.172,0v-1.513h-.172ZM607,723.057h.423l-.078-1.581-.258.01ZM819.346,549.8l-.3.1.477,1.434.221-.081Q819.544,550.529,819.346,549.8Zm-85.7-83.13h-.127v1.368l.127,0Zm113.8,321.7.245-.085c-.007-.129.034-.307-.029-.376a1.611,1.611,0,0,0-.43-.249ZM601.8,929.381l-.294.026.167,1.138Zm134.071-468.3-.436-.1-.146.973.306.079Zm59.17,61.147.1-.239-.868-.4-.093.233ZM852.21,956.257l.4-.213-.456-.8-.233.135ZM606.248,665.019l-.28-.023v.977l.138.014Z" transform="translate(18 -38.325)"/>
    <path id="Path_62" data-name="Path 62" d="M772.562,714.786c-.376-1.783.112-3.488.372-5.22.1-.656.663-1.54-.478-1.91-.09-.029-.148-.537-.067-.757,2.248-6.089,2.705-12.615,4.035-18.926,1.245-5.905,2.557-11.793,3.838-17.687,0,.768,0,1.536,0,2.779.708-1.321,1.061-2.143.055-2.894a5.8,5.8,0,0,0,.686-1.455c.615-3.752,1.125-7.524,1.76-11.272,1.1-6.535,2.261-13.06,3.426-19.583.52-2.912,1.217-5.791,1.654-8.716.968-6.484,1.816-12.988,2.728-19.482.559-3.981,1.154-7.956,1.712-11.936a14.664,14.664,0,0,0,.169-2.319c-.041-1.986-.065-1.985,1.4-3.452,1.028.247,1.223.949,1.255,2.03.134,4.423-.812,8.71-1.281,13.056-.325,3.016-.621,6.037-1.008,9.045-.551,4.267-1.173,8.524-1.766,12.785-.446,3.213-.9,6.424-1.334,9.639a1.929,1.929,0,0,0,.062,1.036c1.072,2.1,1,4.489,1.482,6.736a167.894,167.894,0,0,1,2.8,17.333c.273,2.577,1.07,5.088,1.579,7.64,1.38,6.909,2.663,13.841,4.12,20.732,1.035,4.891,2.35,9.714,3.429,14.6,1.323,5.981,2.487,12,3.81,17.984.591,2.675,1.543,5.263,2.079,7.949.717,3.588,1.212,7.229,1.76,10.855s1.08,7.244,1.542,10.877c.266,2.1.438,4.215.549,6.33.279,5.295.4,10.6.777,15.888.3,4.155.867,8.289,1.37,12.425.247,2.026.634,4.033.929,6.053a5.7,5.7,0,0,0,.958,3.15,2.37,2.37,0,0,1,.3,1.2c.329,3.3.552,6.611.976,9.9.84,6.511,1.779,13.007,2.7,19.505a17.374,17.374,0,0,0,.652,2.881,52.167,52.167,0,0,1,1.694,10.193c.282,2.445.88,4.848,1.34,7.269,1.51,7.963,3.037,15.923,4.526,23.891.764,4.085,1.462,8.184,2.188,12.272q-.675-2.544-1.346-5.08l-.308.082,1.266,6.858.2-.045q.074-.937.148-1.877c.521,2.687,1.05,5.373,1.56,8.063.947,4.986,1.856,9.98,2.829,14.96a55.812,55.812,0,0,1-.758,24.543c-1.584,6.342-2.939,12.751-4.3,19.154-.693,3.26-.463,6.6-.414,9.923.005.35,0,.7,0,1.343a25.151,25.151,0,0,1-2.77-.025,8.394,8.394,0,0,0-2.043-.292c-.083-.095-.226-.182-.24-.288a52.546,52.546,0,0,1,.664-18.306c.461-2.107,1.067-4.178,1.642-6.255a3.042,3.042,0,0,1,.673-1.506c1.2-.946,1.392-2.333,1.633-3.709.91-5.19,2.018-10.355,2.623-15.586a32.957,32.957,0,0,0-1.054-11.753c-1.221-4.906-2.167-9.893-3.21-14.85-.305-1.447-.508-2.918-.8-4.367-.843-4.139-1.816-8.252-2.546-12.414-1.39-7.921-2.649-15.869-3.959-23.806-1.8-10.926-3.57-21.859-5.419-32.776-.635-3.753-1.622-7.441-2.176-11.2-.6-4.114-.892-8.281-1.322-12.425-.116-1.115-.27-2.227-.37-3.343-.139-1.544-.25-3.091-.361-4.637-.045-.634.006-1.284-.1-1.9-1.11-6.567-1.1-13.231-1.54-19.856-.628-9.519-.965-19.087-2.818-28.449-1.3-6.56-3-13.028-4.51-19.539q-3.128-13.474-6.246-26.953c-1.311-5.624-2.732-11.22-3.951-16.866-.548-2.536-.727-5.164-1.062-7.751-.117-.91-.171-1.829-.308-2.735q-.746-4.908-1.539-9.807a4.721,4.721,0,0,0-.833-2.037,7.239,7.239,0,0,0-.338.987c-1.326,6.778-2.567,13.577-3.983,20.334-1.2,5.734-1.989,11.524-2.691,17.346-.667,5.536-1.654,11.027-2.4,16.553-.6,4.471-1.053,8.966-1.567,13.45-.032.281.016.576-.043.847-1.011,4.584-.639,9.29-1.06,13.928a28.44,28.44,0,0,0,1.39,10.639q1.193,4.04,2.606,8a28.712,28.712,0,0,0,1.919,4.174,99.432,99.432,0,0,1,6.031,13.587c2.479,6.693,5,13.372,6.827,20.317.177.674.536,1.291.757,1.954q2.433,7.275,4.835,14.546c-.316-.689-.633-1.362-.933-2.044-.309-.705-.6-1.419-.9-2.128l-.412.184c.391,1.152.73,2.329,1.207,3.439.123.285.676.358,1.031.528q2.436,6.1,4.871,12.2a3.546,3.546,0,0,0-.543.317c.324.973.685,1.933,1.04,2.9l-.057-.075.438,1.669.308-.039.1-.751-.05.064,2.125,4.64-1.161.062c.481,1.776,1.007,3.494,1.41,5.244,1.313,5.693,2.652,11.382,3.844,17.1.885,4.251,1.584,8.548,2.3,12.838a16.739,16.739,0,0,1-.022,2.694c0,.623.011,1.249.064,1.87.565,6.684,1.367,13.357,1.647,20.054s.091,13.43.007,20.144a55.374,55.374,0,0,1-.589,6.325c-.53,4.128-1.358,8.227-1.649,12.372-.521,7.43-2.352,14.6-3.431,21.914-.357,2.421-.753,4.835-1.142,7.325l1.283,1.232-1.786.128-1.32,6.407h-3.654a31.678,31.678,0,0,1,1.958-10.32,19.635,19.635,0,0,0,.366-2.072c.454-1.827,1.072-3.617,1.408-5.467.769-4.227,1.407-8.482,2.1-12.724a3.5,3.5,0,0,1,.212-.595c.027.6.053,1.211.08,1.817l.334.021.421-3.631-.17-.017-.71,1.878q.768-8.015,1.534-16.03c.073-.774.119-1.552.144-2.329.172-5.513.476-11.027.457-16.539-.016-4.586-.414-9.171-.647-13.757-.033-.635-.083-1.27-.134-1.9q-.474-5.8-.956-11.6a2.231,2.231,0,0,0-.172-.816c-1.162-2.224-1.28-4.725-1.641-7.152-.569-3.826-1.054-7.667-1.6-11.5-.109-.764-.358-1.5-.526-2.259a5.035,5.035,0,0,1-.339-1.854c.463-2.335-.295-4.467-.858-6.608-2.629-10-5.494-19.913-8.795-29.681-1.256-3.72-2.687-7.391-3.646-11.2-.506-2.01-.877-4.063-1.561-6.029a160.239,160.239,0,0,0-6.415-15.944c-1.608-3.4-3.019-6.911-4.368-10.439-2.3-6.014-4.6-12.032-6.657-18.143a87.912,87.912,0,0,1-2.536-10.226,20.115,20.115,0,0,1-.54-7.765c.74-4.349.648-8.859.935-13.3a19.694,19.694,0,0,1,.349-2.07q-.114,1.941-.229,3.89-.1,1.845-.2,3.678l.495-.009-.3-3.683a7.069,7.069,0,0,0,.846-4.226Zm39.111,41.676c-.285,2.009-.53,4.014.651,5.812Zm-27.948,13.851c.35,2.535,1.213,4.329,2.281,5.071Q784.866,772.849,783.725,770.313ZM811.1,862.926l.493-.145q-.454-2.253-.91-4.508l-.535.126Q810.621,860.663,811.1,862.926Zm-26.124-94.02-.458.2,1.47,3.811.43-.192Q785.692,770.818,784.972,768.906Zm43.763,106.673.477-.148q-.421-1.677-.844-3.353l-.506.154Zm-2.62-11.411.39-.091q-.454-2.261-.908-4.523l-.367.086Zm3.386,92.3-.517.053c-.268,1.139.118,2.2.517,3.747Zm-18.853-113.3.436-.176-.627-2.886-.432.111Q810.337,841.692,810.648,843.169ZM807.47,728.443c-.361,1.608-.361,1.608.868,2.324C808,729.854,807.733,729.149,807.47,728.443Zm-31.808-2.506v-2.383C775.483,724.361,774.818,725.134,775.662,725.937Zm39.2,142.523-.236.038.358,2.851.425-.077Q815.133,869.867,814.86,868.46Zm15.16,76.568c1.043-1.675,1.043-1.675.64-3.2Zm2.328-20.868.548.012a2.577,2.577,0,0,0-.344-2.548C832.461,922.758,832.405,923.459,832.348,924.16ZM791.572,619.534l.388.235q.231-1.228.463-2.457l-.351-.082Zm40.5,318.968-.332-.127-.534,2.1.428.115Zm-4.783,6.88.34.239q.242-1.129.482-2.259l-.347-.086Q827.526,944.329,827.288,945.382ZM808.612,737.047l.368-.095-.377-1.6-.339.088Zm-3.536-11.856.4-.093q-.207-.923-.413-1.845l-.378.088Q804.878,724.267,805.076,725.191Zm30.7,191.681.459-.041L836,915.614l-.223.031Zm-2.143,12.062-.375.012v1.469l.284.006ZM794.1,790.649l.272-.149-.54-1.277-.344.184ZM791.493,621.7h-.074l-.026.811c.033-.028.095-.055.1-.085C791.5,622.183,791.493,621.941,791.493,621.7Zm5.653,175.985-.232.1.343.953.255-.1ZM775.7,737.866l-.283.09.194.838.275-.07Z" transform="translate(18 -38.325)"/>
    <path id="Path_63" data-name="Path 63" d="M647.42,646.047a71.335,71.335,0,0,0-1.31,8.941c-.249,3.509-.785,7-1.251,10.486-.42,3.139-.922,6.266-1.373,9.4-.793,5.513-1.614,11.022-2.348,16.544-.557,4.2-.843,8.441-1.525,12.612-1.047,6.4-2.445,12.741-3.479,19.147-.795,4.93-1.112,9.949-1.917,14.877a95.8,95.8,0,0,0-1.071,11.6c-.24,5.858-.762,11.712-.145,17.577.192,1.824.53,3.642.574,5.469.092,3.789.03,7.583.035,11.376,0,1.623-.02,3.248.024,4.871.158,5.971-.713,11.845-1.439,17.732-.873,7.077-1.74,14.155-2.641,21.229-.784,6.165-1.625,12.321-2.418,18.485-.659,5.113-1.372,10.22-1.9,15.349-.536,5.2-.822,10.423-1.318,15.626-.349,3.656-.873,7.292-1.307,10.939a12.011,12.011,0,0,0-.032,3.278l.633-1.088.383.113c-.143.772-.226,1.564-.439,2.314a52.9,52.9,0,0,0-1.825,10.8c-.013.2.02.476-.085.576-1.189,1.122-.947,2.734-1.17,4.138-.5,3.134-.95,6.291-1.164,9.458a31.824,31.824,0,0,0,.465,5.246,5.769,5.769,0,0,1,.173,1.46c-.382,2.158-.286,3.7.407,4.788.141.221.412.4.446.634.541,3.625,2.333,6.726,3.586,10.055a71.71,71.71,0,0,1,3.313,9.971,103.9,103.9,0,0,1,1.321,11.131,10.564,10.564,0,0,1-.135,1.807h-4.206c-.293-2.606-.554-5.186-.879-7.756a85.72,85.72,0,0,0-2.949-14.258,7.721,7.721,0,0,0-.449-1.177c-1.825-3.658-2.6-7.752-4.219-11.513a16.6,16.6,0,0,1-1.3-8.883.481.481,0,0,0,0-.21c-1.212-3.49.3-6.781.73-10.125.783-6.155,2.14-12.24,2.681-18.412.569-6.49,1.875-12.829,2.814-19.235,1.177-8.033,2.272-16.043,2.733-24.174.306-5.418,1.248-10.795,1.893-16.192s1.307-10.8,1.9-16.2c.667-6.107,1.42-12.211,1.848-18.339.556-7.961,1.3-15.926.864-23.932-.176-3.244-.4-6.484-.582-9.728a146.074,146.074,0,0,1,.575-19.488c.254-3.24.447-6.486.764-9.719.454-4.638.859-9.29,1.53-13.894q1.986-13.613,4.259-27.177c1-6.053,2.276-12.055,3.289-18.107.5-2.983.607-6.04,1.029-9.041.58-4.121,1.294-8.219,1.941-12.328.778-4.941,1.484-9.9,2.349-14.819a15.673,15.673,0,0,0-.309-6.021c-.924-4.553-1.664-9.156-2.3-13.766-.813-5.87-1.454-11.767-2.164-17.652a10.807,10.807,0,0,1-.082-1.271c0-1.014.547-1.77,1.327-1.714.827.059,1.214.558,1.291,1.517.237,2.956.512,5.912.883,8.851.512,4.05.778,8.131,2.085,12.056a75.7,75.7,0,0,1,1.548,7.432c.936,4.193,1.722,8.446,2.979,12.529,1.054,3.424,1.6,6.982,2.728,10.363.7,2.109,1.671,4.115,2.5,6.179a10.02,10.02,0,0,1,.529,1.759c.7,3.525,1.37,7.055,2.046,10.585.3,1.59.513,3.208.917,4.769.522,2.018,1.2,3.991,1.87,6.2-.656.426-.71,1.337-.477,2.341a57.953,57.953,0,0,0,1.845,7.731c1.973,5.112,1.945,10.627,3.183,15.88,1.243,5.273,2.119,10.644,3.178,15.967.981,4.928.669,9.972,1.209,14.936.2,1.8.665,3.56,1.014,5.338.012.064.108.125.1.176-.243,1.644-.377,3.32-.773,4.921-.468,1.9-1.361,3.686-1.72,5.6-.925,4.921-2.916,9.385-4.883,13.86-1.883,4.284-4.019,8.445-5.81,12.771-2.324,5.609-4.827,11.156-6.192,17.174-.212.933-.816,1.755-1.118,2.674-1.138,3.46-2.2,6.95-3.341,10.409-.833,2.522-1.761,5.008-2.625,7.518-1.717,4.99-2.479,10.241-3.623,15.387a1.931,1.931,0,0,0,.24,1.974c.223.247.141.918.051,1.362-.224,1.1-.549,2.184-.8,3.282a3.593,3.593,0,0,0-.179,1.46c.709,3.2-.59,6.091-1.112,9.1-.264,1.519-.618,3.024-.807,4.552-.362,2.927-.68,5.862-.933,8.8-.344,4-.778,8.009-.875,12.022-.209,8.625-.237,17.255-.3,25.883a14.829,14.829,0,0,0,.369,2.238,10.851,10.851,0,0,1,.236,2.064c-.364,7.923-.171,15.845.244,23.752s1.049,15.783,1.675,23.665c.266,3.351.757,6.681,1.157,10.116h-2.952a36.279,36.279,0,0,1-.968-7c-.527-4.841-.961-9.7-1.386-14.548-.215-2.461-.315-4.933-.491-7.4-.156-2.183-.26-4.376-.536-6.543a153.815,153.815,0,0,1-1.086-16.925c-.047-2.813-.511-5.615-.683-8.429-.071-1.174.172-2.366.2-3.552.081-4.031.044-8.066.205-12.092.262-6.569.618-13.134.991-19.7.153-2.682.5-5.351.663-8.032.079-1.309-.129-2.635-.092-3.95a21.669,21.669,0,0,1,.362-3.149c1.664-9.518,3.385-19.024,5.007-28.55a79.051,79.051,0,0,1,3.535-12.128c2.612-7.7,5.243-15.4,8.008-23.043,1.02-2.819,2.452-5.466,3.675-8.2,1.594-3.569,3.112-7.178,4.76-10.717a116.381,116.381,0,0,0,6.042-17.482c.476-1.676,1.016-3.382.326-5.186-.12-.313.011-1.034.221-1.146,1.4-.746,1.187-2.132,1.11-3.319-.343-5.288-.7-10.579-1.227-15.848a64.86,64.86,0,0,0-2.731-13.009,30.844,30.844,0,0,1-.669-3.956c-.351-2.005-.735-4-1.086-6.008-.414-2.36-.807-4.724-1.213-7.086a169.088,169.088,0,0,0-3.9-17.724c-.828-2.9-1.509-5.859-2.243-8.795-1.161-4.64-2.325-9.28-3.459-13.928-.667-2.734-1.272-5.486-1.921-8.225-.106-.45-.294-.878-.444-1.317Zm-7.489,51.5a14.374,14.374,0,0,0-1.316,9.024c.479-2.833.906-5.31,1.307-7.792A7.9,7.9,0,0,0,639.931,697.551Zm-8.726,111-.509.006q-.379,3.669-.761,7.337l.43.054Zm12.366-154.9-.552-.043q-.43,2.943-.86,5.888l.432.072Q643.082,656.607,643.571,653.648ZM619.707,902.119a6.436,6.436,0,0,0,1.147-4.212l-.4-.084Q620.083,899.971,619.707,902.119Zm-2.38,16.344c.185-1.605,1.109-3.154.373-4.832Q617.513,916.046,617.327,918.463Zm19.8-67.771.363.129.751-4.507-.425-.077Zm-3.119,75.385.178-.005V921.5l-.178.008Zm7.749-246.614.369.048.582-4.176-.436-.061Q642.015,677.368,641.758,679.463Zm12.763-9.935.414-.21-.513-1.717-.344.111Zm-32.59,213.178-.3-.09-.208,1.134.136.034Zm-2.526,24.945.162.008.082-1.307-.244-.011Z" transform="translate(18 -38.325)"/>
  </g>
</svg>
