<svg xmlns="http://www.w3.org/2000/svg" width="177.664" height="153.57" viewBox="0 0 177.664 153.57">
  <g id="Group_6" data-name="Group 6" transform="translate(-19.691 -474.565)">
    <path id="Path_158" data-name="Path 158" d="M113.835,489.73c2.249.025,3.809.076,5.688.015a104.584,104.584,0,0,0,13.225-1.394c14.376-2.017,26.064-1.844,33.214-5.516,5.774-2.965,8.738-4.419,12.962-5.516a16.846,16.846,0,0,1,3.5-.746c.959-.071,3.228-.132,8.667,2,3.5,1.371,5.245,2.057,5.667,3,1.1,2.464-2.157,5.356-4.462,9.537-2.379,4.316-3.341,8.24-5.266,16.089-2.142,8.737-5.1,20.813-2.939,32.374.726,3.879,1.244,7.794,2,11.667a41.891,41.891,0,0,1,1,8.667,32.171,32.171,0,0,1-.333,5c-2.356,14.243-8.234,34.688-8.234,34.689-2.392,8.321-2.923,9.343-3.482,10.8-1.613,4.188-2.377,5.088-2.909,9.2a10.911,10.911,0,0,1-2.115,5.75c-1.63,1.976-41.165,2.227-63.189,1.839l-5.141.459c-17.119.127-52.243-.322-53.873-2.3a10.917,10.917,0,0,1-2.114-5.75c-.823-6.342-2.2-5.038-6.392-19.992-4.1-14.6-6.459-23.026-6.886-34.017-.452-11.651,1.91-9.7,2.026-25.283A133.178,133.178,0,0,0,30.8,507.2c-1.994-7.984-2.99-11.976-5.266-16.089-2.938-5.314-6.309-8.617-5.265-11.033.409-.947,11.239-5.1,12.961-5.057,2.495.06,4.222,1.347,5.671,2.3,3.993,2.625,8.649,3.655,12.962,5.516,9.747,4.205,22.023,4.891,33.215,5.516.491.028.594.032,1.577.08s11.623.589,14.755.746C108.526,489.533,112.084,489.711,113.835,489.73Z" fill="#450a0e" stroke="#040505" stroke-miterlimit="10" stroke-width="0.909"/>
  </g>
</svg>
