<svg xmlns="http://www.w3.org/2000/svg" width="263.787" height="641.08" viewBox="0 0 263.787 641.08">
  <g id="Group_17" data-name="Group 17" transform="translate(-298.213 -322.645)">
    <path id="Path_3" data-name="Path 3" d="M535.961,871.367l-.5-.637c.177,2.129.279,4.051.506,5.957.789,6.636,1.775,13.25,2.4,19.9a114.091,114.091,0,0,1,.181,20.456,34.745,34.745,0,0,1-1.218,6.76,19.044,19.044,0,0,1-2.33,4.667c-2.133,3.372-4.135,6.764-4.341,10.992-.132,2.713-.508,5.426-.461,8.133.071,4.088.409,8.172.647,12.257.068,1.17.181,2.337.288,3.694l-2.206.133c-.187-1.756-.406-3.39-.527-5.033-.316-4.307-.549-8.621-.889-12.925a30.737,30.737,0,0,1,3.615-16.74c1.865-3.647,3.875-7.28,4.472-11.47a25.839,25.839,0,0,0,.178-5.829c-.362-4.154-.929-8.287-1.433-12.426a16.725,16.725,0,0,0-.433-2.245,8.543,8.543,0,0,1-.261-3.844,21.621,21.621,0,0,0-.183-5.2c-.336-4.436-.665-8.874-1.08-13.3-.194-2.069-.5-4.134-.893-6.172-1.459-7.627-3.082-15.22-4.426-22.87-.792-4.511-1.223-9.1-1.732-13.66-.747-6.7-1.414-13.406-2.6-20.041-.832-4.648-1.731-9.291-2.333-13.974-.655-5.1-1.083-10.231-1.458-15.361-.386-5.276-.555-10.569-.883-15.85-.258-4.152.533-8.188,1.029-12.261a51.456,51.456,0,0,0,.559-5.818,54.309,54.309,0,0,0-.449-6.22c-.193-1.795-.517-3.574-.778-5.361-.03-.206.055-.479-.043-.616-1.119-1.565-.346-3.394-.643-5.075-.314-1.776-.492-3.581-.681-5.38s-.363-3.6-.469-5.405c-.325-5.511-1.541-10.871-2.384-16.294-.523-3.359-.942-6.738-1.327-10.118-.82-7.192-1.536-14.4-2.394-21.582-.693-5.8-1.567-11.577-2.292-17.374-.284-2.275-.393-4.576-.559-6.867a18.38,18.38,0,0,0-.973-5.042,20.361,20.361,0,0,1-.614-5.15c-.081-.992-.126-1.958-1.21-2.59-.1.549-.176,1.055-.28,1.555-.622,2.99-1.238,5.981-1.879,8.967-1.952,9.093-3.821,18.208-5.895,27.27-2.618,11.435-5.531,22.794-8.073,34.247a70.773,70.773,0,0,0-.634,32.478,71.818,71.818,0,0,0,1.794,8.721,97.086,97.086,0,0,0,3.46,9.314c2.515,6.121,5.121,12.2,7.693,18.295,1.046,2.478,2.161,4.926,3.137,7.435,1.475,3.789,2.908,7.6,4.264,11.437,2.417,6.843,4.932,13.653,7.094,20.587a94.456,94.456,0,0,1,4.214,26.055c.134,5.847.586,11.687.894,17.529q.054,1.044.083,2.09a13.164,13.164,0,0,0,.068,2.5c.789,3.491-.029,6.989.1,10.486.136,3.534-.261,7.089-.369,10.636-.191,6.268-.232,12.544-.536,18.806-.36,7.44-.349,14.906-1.328,22.312-.336,2.543-.2,5.154-.478,7.71-.541,4.98-1.2,9.945-1.85,14.911-.423,3.243-.938,6.472-1.341,9.717a11.148,11.148,0,0,0,.184,2.219c.068.807.123,1.614.2,2.618l-3.042.237c.117-1.346.279-2.488.306-3.634.163-7.113,1.278-14.128,1.882-21.2.368-4.3.642-8.607.929-12.913.325-4.86.663-9.72.909-14.586.155-3.059.127-6.128.226-9.191.243-7.52.6-15.037.744-22.559q.189-10.032-.014-20.072c-.1-5.148-.449-10.292-.789-15.43-.275-4.168-.689-8.326-1.077-12.485-.07-.755-.341-1.487-.465-2.239-.33-1.988-1.448-3.725-1.213-5.941a2.98,2.98,0,0,0-2.311-3.4c-.715-.163-.852-.731-.69-1.61l2.1,1.671c-.1-.741-.118-1.243-.229-1.721a67.832,67.832,0,0,0-3.611-11.9,32.171,32.171,0,0,1-2.407-6.135c-.865-4.15-3.227-7.536-4.674-11.38-1.456-3.869-3.326-7.561-5-11.34a23.392,23.392,0,0,0-1.621-3.795,30.545,30.545,0,0,1-3.46-8.031c-.921-2.822-1.841-5.645-2.692-8.492-1.308-4.374-2.6-8.756-3.809-13.161-.381-1.385-.465-2.859-.74-4.281q-.586-3.042-1.262-6.064c-.209-.925-.536-1.819-.8-2.73a.708.708,0,0,1,.008-.4c1.238-3.467.216-7.19,1.088-10.714.446-1.8.547-3.69.9-5.518q1.845-9.5,3.772-18.988c.374-1.835.919-3.629,1.333-5.456,1.072-4.734,1.911-9.541,3.219-14.2,1.655-5.891,2.722-11.9,3.84-17.908.584-3.142,1.2-6.286,1.587-9.458.166-1.35,1.081-2.46.836-3.916s.831-2.54,1.215-3.827c.4-1.326.852-2.631,1.272-3.948.121-.38.207-.773.34-1.275-.868-.224-1.3.372-1.764.77a38.585,38.585,0,0,1-16.807,8.163,38.071,38.071,0,0,1-5.447.642c-2.346.2-4.7.334-7.047.474a13.345,13.345,0,0,1-8.586-2.4c-1.976-1.358-4.073-2.52-6.02-3.92a18.809,18.809,0,0,1-3.411-3.114,48.521,48.521,0,0,1-9.394-18.385c-.258-.915-.495-1.837-.8-2.984H444.9a28.05,28.05,0,0,1,1.833,4.631c.907,4.4,3.671,7.737,5.608,11.53a16.244,16.244,0,0,0,4.1,4.7c1.77,1.5,3.568,3.082,5.84,3.753.127.037.286.038.373.123,1.7,1.657,3.913,1.78,6,2.263a14.166,14.166,0,0,0,2.31.265c1.93.122,3.861.254,5.793.3a15.369,15.369,0,0,0,3.322-.2,53.881,53.881,0,0,0,9.453-2.64,6.568,6.568,0,0,0,1.454-.624c2.913-2.094,6.107-3.851,8.255-6.931,1.317-1.888,2.384-3.974,3.566-5.97.719-1.214,1.739-2.288,1.446-3.945a1.506,1.506,0,0,1,.352-.945,11,11,0,0,0,2.161-5.433,11.165,11.165,0,0,1,.879-2.518c.348-.958.869-1.888.343-2.971a.807.807,0,0,1-.011-.614c1.39-2.737.735-5.86,1.471-8.723.268-1.045.2-2.2.536-3.209a2.057,2.057,0,0,1,1.381-1.109c.7-.134.7.623.713,1.189.033,1.04.057,2.081.122,3.118.056.895.183,1.785.241,2.68a14.58,14.58,0,0,1,.027,2.068c-.088,1.109-.211,2.218-.394,3.314a73.044,73.044,0,0,1-2.461,11.585,1.406,1.406,0,0,1-.159.381c-2.35,3.184-1.453,6.678-.9,10.162.324,2.058.5,4.142.767,6.211.246,1.929.514,3.855.779,5.782.351,2.547.74,5.089,1.055,7.641.68,5.519,1.531,11.027,1.918,16.57.317,4.52.92,8.982,1.462,13.464,1.07,8.843,1.989,17.707,3.144,26.537,1.127,8.623,2.455,17.216,3.723,25.817.647,4.388,1.636,8.745,1.944,13.157.215,3.07-.447,6.213-.758,9.319-.09.9-.4,1.766-.473,2.661-.383,4.648-.931,9.3-1,13.952a32.8,32.8,0,0,0,.741,9.112,35.439,35.439,0,0,1,.627,5.58c.8,7.885,1.653,15.765,3.027,23.564.794,4.507,1.762,8.98,2.642,13.471.174.886.306,1.781.456,2.672a42.081,42.081,0,0,0,.743,4.312,132.143,132.143,0,0,1,3.031,16.8,2.422,2.422,0,0,1,.117.819c-.934,3.775.6,7.239,1.239,10.8.724,4.029,1.674,8.012,2.525,12.015ZM530.149,841.7l-.056-3.041-.378-2.866-.594-2.729c.06.939-.44,2.074.605,2.714-.252,1.01-.523,2.022.363,2.876q.028,1.521.056,3.043.147.851.295,1.7C530.747,842.73,530.876,842.107,530.149,841.7Zm-3.792-23.89-.433.092q.466,2.331.932,4.662l.392-.081Zm-6.623,67.453.351,0v-4.664l-.351.017Zm-1.365-17.87-.531.08a3.067,3.067,0,0,0,.7,3.013C518.473,869.259,518.421,868.324,518.369,867.389Zm1.221-4.222c-.511,1.5-.992,2.533,0,3.715Zm-1.525-9.505-.13.01v3.95l.13-.031Zm-5.455-38.031.492-.3-1.229-3.4-.385.147Zm5.235,70.856.252.006V882.37l-.252-.005Zm-.04,33.922.253.058c0-1.089,0-2.177,0-3.266a1.472,1.472,0,0,0-.068-.314l-.182.05ZM522.917,799.2a1.2,1.2,0,0,0-.489-1.923Zm-4.4,60.345-.26-.08v1.86h.26Zm.474-14.182.258-.037q-.105-.912-.209-1.822l-.319.041Zm-.914-11.722.307-.077-.344-1.6-.355.09Zm-1.443,4.986h.15v-1.532h-.15Zm.428-118.074a4.319,4.319,0,0,0,.014.979c.055.16.232.273.355.407l.149-.157Zm2.126,185.779-.132.006v.878l.177-.007ZM510.249,647l-.4.093.253.913.314-.077Zm6.189,54.88-.258.023.1,1.135.232-.029Zm2.575,73.6h.184v-1.262h-.184Zm-1.81,71.539.387.03c-.036-.221-.07-.443-.115-.662a.331.331,0,0,0-.159.008C517.27,846.6,517.238,846.809,517.2,847.017Zm1.012-10.074.289-.034-.1-1.318-.356.046Z" fill="none" opacity="0.85"/>
    <path id="Path_4" data-name="Path 4" d="M346.873,954.341c-.472-3.5-.935-6.994-1.419-10.489-.475-3.436-.973-6.869-1.458-10.292.31.787.618,1.562.925,2.338l.305-.145-.36-2.26-.87.1c-.583-4.615-1.176-9.228-1.74-13.846-.1-.826.012-1.689-.14-2.5-.979-5.23-.758-10.548-1.034-15.826-.234-4.448-.3-8.91-.294-13.366,0-3.967.262-7.933.289-11.9.042-6.273-.1-12.548,0-18.82.075-4.876.277-9.759.639-14.62.434-5.828,1.011-11.648,1.692-17.45.438-3.725,1.035-7.444,1.807-11.107,1.46-6.925,3-13.835,4.7-20.7a75.241,75.241,0,0,1,2.956-8.634c1.722-4.507,3.575-8.957,5.33-13.449a96.43,96.43,0,0,1,6.243-12.546,176.189,176.189,0,0,0,9.3-17.908,43.242,43.242,0,0,0,3.578-18.441,12.7,12.7,0,0,0-.294-1.629c-.043-.265-.153-.689-.039-.787,1.394-1.206.615-2.7.467-4.063-.375-3.457-.735-6.923-1.314-10.345-1.147-6.777-1.625-13.638-2.474-20.449-.859-6.9-2.047-13.758-3.181-20.618-1.5-9.059-3.627-17.968-5.865-26.846-.159-.632-.42-1.234-.8-2.316-.561,1.866-1.035,3.2-1.364,4.578-1.161,4.854-2.351,9.7-3.382,14.59-1.13,5.357-1.906,10.8-3.188,16.117-1.161,4.807-1.817,9.683-2.605,14.55-1.333,8.228-2.791,16.434-4.189,24.65-.187,1.1-.3,2.2-.493,3.3-.715,4.152-1.4,8.311-2.181,12.448a93.334,93.334,0,0,0-1.32,16,30.884,30.884,0,0,1-.59,6.612,31.388,31.388,0,0,0-.407,5.826c-.118,3.06-.238,6.122-.261,9.184-.026,3.615.165,7.234.051,10.844s-.348,7.222-.779,10.8c-.857,7.111-1.885,14.2-2.841,21.3-.228,1.7-.378,3.411-.707,5.086-.152.777-.789,1.443-.959,2.221-.8,3.66-1.587,7.327-2.243,11.018-.972,5.472-1.855,10.963-2.727,16.455-.588,3.708-1.043,7.44-1.644,11.146-.834,5.143-1.741,10.271-2.63,15.4q-1.494,8.628-3.014,17.249c-.656,3.7-1.455,7.366-2.007,11.077a108.982,108.982,0,0,0-1.3,11.6c-.136,3.358-.017,6.742,1.546,9.937a50.825,50.825,0,0,1,2.33,7.062c.625,1.975,1.173,3.979,1.866,5.925a26.194,26.194,0,0,0,1.7,3.744,16.959,16.959,0,0,1,2.071,6.486,91.157,91.157,0,0,1,.238,16.9c-.1,1.108-.024,2.231-.09,3.343a7.02,7.02,0,0,1-.64,2.686l-.492-.968a1.66,1.66,0,0,1-2.592.785,33.29,33.29,0,0,0,.327-11.727,92.664,92.664,0,0,0-1.293-9.494c-.8-3.574-2.048-7.037-3.115-10.544-.362-1.191-.768-2.368-1.153-3.552a44.243,44.243,0,0,0-2.532-6.538,23.3,23.3,0,0,1-1.332-4.958c-.2-.793-.349-1.6-.523-2.4-.029-.134-.135-.3-.091-.393,1.308-2.654.641-5.575,1.015-8.352.332-2.467.71-4.927,1.047-7.393.225-1.652.32-3.33.634-4.961.786-4.088,1.708-8.145,2.492-12.233.954-4.971,1.831-9.959,2.725-14.943s1.179-10.071,2.223-15.046c.6-2.836.568-5.813,1.005-8.7,1.153-7.618,2.278-15.246,3.672-22.815.762-4.139,2.218-8.13,3.057-12.257,1.286-6.326,2.318-12.711,3.435-19.076a5.934,5.934,0,0,0,.058-1.87c-.459-3.005.133-5.969.223-8.952q.186-6.155.148-12.316c0-.523-.6-1.042-.894-1.53l.872-.188a6.006,6.006,0,0,0,.112-.805c.041-4.095.6-8.182.109-12.289a14.392,14.392,0,0,1,.14-2.908c.205-2.355.392-4.714.665-7.061.475-4.071.969-8.141,1.532-12.2.525-3.781,1.166-7.543,1.725-11.319.213-1.441.306-2.9.512-4.344.363-2.542.767-5.077,1.161-7.613.5-3.225.922-6.468,1.536-9.669.953-4.973,2.042-9.917,3.072-14.874,1.284-6.18,2.532-12.369,3.862-18.538.76-3.524,1.69-7.006,2.473-10.525,1.114-5,2.151-10.024,3.246-15.031.325-1.487.742-2.952,1.1-4.432a4.505,4.505,0,0,0-.4-3.585,25.024,25.024,0,0,1-2.484-5.2,49.882,49.882,0,0,1-1.6-7.486c-.431-2.957-.7-5.949-.881-8.936a41.4,41.4,0,0,1,1.077-11.594c.35-1.548.864-3.053,1.263-4.435,1.417-.932,1.916.13,2.514.971a24.3,24.3,0,0,0-2.247,10.251c-.052,1.732-.282,3.458-.4,5.189-.276,4.243.673,8.272,1.747,12.319a52.727,52.727,0,0,0,5.253,12.076,10.173,10.173,0,0,0,5.148,4.91,7.722,7.722,0,0,1,3.335,2.4,9.325,9.325,0,0,0,3.972,2.519c5.465,2.033,11.043,1.736,16.656.664,8.655-1.653,15.477-6.617,21.088-13.49a22.811,22.811,0,0,0,4.981-11.191,6.126,6.126,0,0,1,.737-1.587c.2-.421.422-.834.584-1.272s.274-.927.424-1.452l2.036-.812c-.214,2.691-.1,5.1-1.086,7.518a44.765,44.765,0,0,1-4.075,8.548,24.54,24.54,0,0,1-2.449,3.21,41.148,41.148,0,0,1-7.646,6.825,54.655,54.655,0,0,1-8.139,4.552,42.815,42.815,0,0,1-8.724,2.181,41.584,41.584,0,0,1-7.056.473c-2.41,0-4.82-.266-7.23-.416-.065,0-.155,0-.189-.036-2.13-2.473-5.5-2.937-7.659-5.44a32.75,32.75,0,0,0-4.075-3.462l-.421.246c.327,1.733.582,3.487,1,5.2,1.014,4.169,2.047,8.335,3.179,12.469a114.268,114.268,0,0,1,2.409,13.916c.974,6.729,2.306,13.4,3.334,20.122.609,3.984.846,8.032,1.393,12.029.63,4.61,1.411,9.2,2.138,13.792.412,2.607.978,5.2,1.224,7.821a16.444,16.444,0,0,1-.386,4.555,98.642,98.642,0,0,1-3.865,14.226,8.682,8.682,0,0,1-1.787,3.625,5.438,5.438,0,0,0-.709,1.474c-1.031,2.086-1.929,4.265-3.134,6.231a68.579,68.579,0,0,0-6.686,13.441c-.761,2.209-1.681,4.356-2.537,6.528a1.862,1.862,0,0,1-.38.715c-1.655,1.442-2.321,3.524-3.083,5.506-1.9,4.951-3.774,9.918-5.532,14.928a50.463,50.463,0,0,0-1.339,5.623c-.606,2.7-1.151,5.411-1.816,8.092-.238.959.287,2.16-.758,2.88q-.082-.606-.158-1.219l-.271,0-.419,1.483.913-.325c-.3,1.348-.658,2.685-.894,4.047-.673,3.893-1.3,7.795-1.94,11.694-.518,3.137-1.084,6.265-1.539,9.412-.214,1.473-.624,3.046.691,4.312-1.409,2.21-.6,4.646-.812,6.963-.208,2.268-.351,4.543-.53,6.814a6.961,6.961,0,0,0-.128.82c.231,5.609-.7,11.163-.4,16.809.433,8.185.246,16.406.375,24.611.087,5.493.322,10.985.38,16.478.052,4.97,1.053,9.8,1.693,14.683.542,4.13.982,8.276,1.424,12.42.428,4.008.677,8.043,1.242,12.027.428,3.016,1.276,5.962,1.846,8.958.239,1.255.244,2.56.4,4.351-1.1-1.368-2.515-1.63-2.738-3.385-.25-1.973-.817-3.9-1.245-5.844l.8.645-.416-2.327-.229.006Zm-14.758-10.554-.174,2.736.506-.017q-.176-1.345-.349-2.692c-.022-.829-.074-1.658-.058-2.486a7.387,7.387,0,0,0-1.249-4.165c.3,2.183.512,3.89.789,5.584A4.132,4.132,0,0,0,332.115,943.787Zm-2.613,2.008-.294.035.154,2.163.353-.046Zm19.745,11.085-.3.114.4,1.091.255-.1Zm-6.4-86.133h-.116v1.342h.116Zm-1.131,23.505c-.08-.028-.153-.072-.167-.056a.278.278,0,0,0-.078.175c.019.343.051.685.079,1.028l.308-.04Zm-15.576,38.207.212.009a2.754,2.754,0,0,0-.015-.761,2.889,2.889,0,0,0-.4-.66l-.216.144ZM322.9,900.927l-.344.008v1.344h.254Zm22.121,37.681.233.064-.051-1.059-.182.008Z" fill="none" opacity="0.85"/>
    <g id="Group_16" data-name="Group 16">
      <path id="Path_2" data-name="Path 2" d="M558.879,963.573h-2.205c0-2.332.123-4.558-.03-6.763-.225-3.256-.644-6.5-.984-9.744q-.4-3.843-.81-7.685-.907-8.617-1.81-17.235c-.121-1.176-.125-2.366-.266-3.539-.154-1.285-.533-2.551-.591-3.837-.235-5.216-.487-10.435-.539-15.655-.07-6.968-.062-13.941.113-20.906.091-3.609.616-7.2.943-10.807.428-4.713.753-9.44,1.3-14.137.754-6.424,1.708-12.821,2.52-19.238.419-3.31.687-6.642,1.078-9.956.275-2.332.726-4.643.947-6.979.249-2.633.331-5.284.479-7.927.158-2.844.411-5.688.43-8.534a65.979,65.979,0,0,0-.4-7.259c-.252-2.412-.624-4.818-1.09-7.2-.988-5.036-2.066-10.053-3.119-15.076-.328-1.562-.645-3.13-1.05-4.671-1.267-4.824-2.536-9.649-3.877-14.451-1.4-5-2.907-9.959-4.31-14.954-.8-2.866-1.6-5.742-2.2-8.661a50.078,50.078,0,0,1-.51-5.56c-.416-4.657.153-9.277.426-13.91.177-2.987.334-5.975.438-8.965.116-3.33.23-6.662.217-9.993-.009-2.147-.286-4.292-.373-6.441-.2-4.938-.411-9.877-.52-14.818-.2-9.124-.339-18.249-.485-27.375a13.578,13.578,0,0,0-.3-3.257c-.266-1.048.163-2.284.228-3.44a113.29,113.29,0,0,0-.545-15.865c-.358-4.227-.471-8.477-.707-12.715-.17-3.053-.4-6.1-.538-9.156-.217-4.652-.364-9.308-.578-13.961-.189-4.1-.391-8.2-.658-12.293-.226-3.459-.519-6.913-.848-10.362A54.066,54.066,0,0,0,537.32,551c-.744-2.719-.858-5.626-1.485-8.39a32.021,32.021,0,0,0-2.928-7.823c-2.268-4.317-5.854-6.711-9.961-8.586-2.38-1.088-4.587-2.6-6.938-3.764-1.83-.907-3.738-2.11-5.656-2.211a11.726,11.726,0,0,1-5.412-1.8,4.992,4.992,0,0,0-1.314-.426c-2.989-.734-6.057-1.212-8.954-2.239-4.3-1.525-8.783-2.156-13.129-3.423-3.151-.919-6.324-1.754-9.5-2.565-1.071-.273-2.228-.212-3.27-.559a12.56,12.56,0,0,1-4.257-1.917,25.057,25.057,0,0,1-4.2-4.91,19.524,19.524,0,0,1-3.1-9.979,96.518,96.518,0,0,1,.311-15.635c.547-5.532,1.018-11.073,1.559-16.605.147-1.506.424-3,.719-5.03-1.784,1.541-3.268,2.717-4.639,4.027a52.285,52.285,0,0,1-11.885,8.407,10.052,10.052,0,0,1-4.746,1.147,25.8,25.8,0,0,1-7.591-.662,13.19,13.19,0,0,1-3.1-1.638c-2.079-1.316-4.193-2.59-6.152-4.088-2.228-1.7-4.3-3.636-6.444-5.468-.35-.3-.7-.6-1.176-1-.1,1.915-.246,3.656-.259,5.4-.048,6.054,0,12.109-.083,18.163-.049,3.618-.126,7.25-.484,10.843a17.527,17.527,0,0,1-1.612,4.6c-.543,1.336-1.226,2.606-1.8,3.93a10.657,10.657,0,0,1-5.206,5.416,53.287,53.287,0,0,1-11.544,3.906c-3.5.871-6.933,2.068-10.449,2.847a164.493,164.493,0,0,0-18.1,4.671c-1.672.574-3.447.833-5.089,1.482a109.477,109.477,0,0,0-11.629,4.952,25.426,25.426,0,0,0-9.794,8.5A26.907,26.907,0,0,0,334,540.876c-.943,6.042-1.725,12.131-3.028,18.088-1.351,6.175-1.974,12.462-3.064,18.673-1.079,6.146-1.594,12.4-2.36,18.613-.238,1.928-.541,3.849-.721,5.783-.441,4.708-.471,9.5-1.34,14.111a111.92,111.92,0,0,0-1.241,12.606c-.657,8.884-1.015,17.792-1.663,26.676a104.028,104.028,0,0,0-.444,12.718c.148,2.977.066,5.965.118,8.948.045,2.568.257,5.14.182,7.7-.278,9.514-.017,19.047-.837,28.543-.228,2.637-.43,5.278-.734,7.906a18.166,18.166,0,0,1-.737,2.795c-.113.4-.307.775-.391,1.179-.564,2.712-1.106,5.43-1.663,8.144-.154.748-.346,1.488-.5,2.237a46.214,46.214,0,0,0-1.081,5.7,36.361,36.361,0,0,1-2.071,8.456c-.525,1.645-1.08,3.28-1.556,4.94-.913,3.185-1.87,6.361-2.646,9.585q-2.158,8.984-4.107,18.025a43.2,43.2,0,0,0-.476,4.56c-.156,1.448-.375,2.89-.5,4.341s-.21,2.9-.225,4.355c-.053,5.152-.1,10.306-.09,15.458.015,5.354.294,10.715.1,16.057-.122,3.269-.1,6.5.073,9.758.066,1.219-.411,2.462-.436,3.7-.035,1.653.165,3.311.2,4.969.028,1.453-.013,2.909-.065,4.362-.174,4.833.665,9.557,1.272,14.312.317,2.479.341,5,.495,7.5q.225,3.636.448,7.272c.013.207-.013.512.1.6,1.477,1.173.745,2.915.977,4.386a10.741,10.741,0,0,1,.2,4.728,6.8,6.8,0,0,0,.335,4.477,2.887,2.887,0,0,1,.126,1.155c-.124,5.5-.247,11-.408,16.492a21.578,21.578,0,0,1-.36,2.857c-.5,3.012-1.012,6.02-1.524,9.029q-1.276,7.5-2.557,15a22.187,22.187,0,0,0-.464,2.88q-.3,8.562-.487,17.128a14.833,14.833,0,0,0,.386,3.312c.466,2.218.117,2.706-2.161,2.548a30.427,30.427,0,0,1-.779-9.02c.434-4.994.808-10,1.462-14.965.708-5.375,1.746-10.7,2.565-16.058.619-4.054,1.311-8.112,1.626-12.2q.666-8.633.78-17.314c.077-6.1-.815-12.042-1.376-18.044-.629-6.719-1.19-13.45-2.046-20.138-.97-7.569-.8-15.165-.837-22.754-.038-7.867.181-15.735.287-23.6.054-3.972.032-7.948.181-11.917.192-5.15.343-10.315.855-15.435a42.774,42.774,0,0,1,1.987-8.911c1.463-4.484,2.581-9.049,3.676-13.639,1.142-4.79,2.587-9.5,3.812-14.266.461-1.793.674-3.658,1.006-5.489a12.047,12.047,0,0,1,.452-2.24A50.4,50.4,0,0,0,315.284,726c.492-3.51,1.39-6.964,1.748-10.485.416-4.074.478-8.193.621-12.295.2-5.843.433-11.688.48-17.533.036-4.434-.183-8.871-.313-13.306-.091-3.061-.37-6.124-.3-9.18.1-4.8.339-9.593.673-14.378.31-4.429.857-8.84,1.232-13.265.352-4.159.546-8.333.938-12.487.489-5.194,1.133-10.372,1.666-15.563.469-4.569.764-9.161,1.338-13.714,1.076-8.544,2.3-17.068,3.461-25.6.659-4.821,1.3-9.645,2.013-14.457.17-1.153.658-2.25.857-3.4.5-2.875,1.007-5.754,1.341-8.653a27.181,27.181,0,0,1,4.512-11.621c3.785-5.964,9.191-9.348,15.185-12.027a161.665,161.665,0,0,1,19.846-7.314c3.893-1.16,7.918-1.825,11.889-2.684,3.334-.722,6.72-1.225,10-2.146a49.758,49.758,0,0,0,11.987-5.154,10.522,10.522,0,0,0,4.618-6.433,40.6,40.6,0,0,0,1.71-11.661c-.011-2.785-.064-5.571-.02-8.356.028-1.807.295-3.613.283-5.418-.033-5.358-.138-10.716-.255-16.073a4.378,4.378,0,0,0-.457-1.9c-.551-1.022-1.31-1.916-1.889-2.924a36.12,36.12,0,0,1-1.86-3.647c-.983-2.271-2.015-4.535-2.783-6.893-1-3.082-1.805-6.241-2.627-9.387-.666-2.545-1.262-5.113-1.832-7.685-.417-1.879-.741-3.782-1.132-5.81-.446.137-.867.26-1.285.394a3.388,3.388,0,0,1-4.244-1.514,14.168,14.168,0,0,1-2.281-6.171c-.439-3.448-.652-6.931-.869-10.406a16.062,16.062,0,0,1,.237-3.533c.424-2.609,3-3.517,4.887-1.741a4.87,4.87,0,0,1,.7,1.223l.415-.347c0-1.219.069-2.442-.011-3.655-.356-5.4-.778-10.8-1.116-16.207a22.8,22.8,0,0,1,.2-3.324,111.318,111.318,0,0,1,1.076-11.4c.852-4.461,1.593-8.987,4.1-12.968a49.067,49.067,0,0,1,10.884-12.1,70.328,70.328,0,0,1,5.611-4.5,29.285,29.285,0,0,1,5.709-2.686c1.641-.613,3.407-.837,5.085-1.354.977-.3,1.859-1.074,2.838-1.219a21.609,21.609,0,0,1,5.637-.3c4.682.553,9.336,1.369,14,2.087a2.941,2.941,0,0,1,.952.248,99.733,99.733,0,0,1,8.854,4.927,29,29,0,0,1,5.906,5.439c2.4,2.9,4.462,6.136,6.664,9.23.393.551.752,1.13,1.158,1.67a7.623,7.623,0,0,1,1.578,3.714c.315,2.327,1.036,4.589,1.518,6.894.895,4.276,1.786,8.554,2.574,12.853a18.448,18.448,0,0,1-.1,3.121c.015,3.825.112,7.651.075,11.475-.021,2.14-.253,4.278-.368,6.418a15.01,15.01,0,0,0,.117,1.6,16.364,16.364,0,0,0,1.934-1.119,1.455,1.455,0,0,1,1.961.062,4.68,4.68,0,0,1,2.2,3.492,29.287,29.287,0,0,1-1.494,14.557,21.531,21.531,0,0,1-1.821,3.909c-1.43,2.276-2.657,2.551-5.124,1.306a20.921,20.921,0,0,0-.742,2.334c-.391,1.975-.765,3.958-1.039,5.955-.707,5.154-2.843,9.8-4.459,14.638A46.263,46.263,0,0,1,464.2,448.9a4.9,4.9,0,0,0-.76,3.579,7.04,7.04,0,0,1-.688,4.313,16.069,16.069,0,0,0-.98,4.441c-.328,2.41-.561,4.836-.775,7.261-.35,3.952-.691,7.9-.966,11.863a62.279,62.279,0,0,0,.135,12.317c.482,3.733,1.61,7.162,4.381,9.764a8.322,8.322,0,0,0,3.251,1.85c4.315,1.4,8.6,2.9,12.921,4.27,3.262,1.03,6.569,1.892,9.849,2.858,1.64.482,3.256,1.062,4.9,1.541,3.576,1.046,7.176,2,10.738,3.1a85.048,85.048,0,0,1,9.339,3.178,103.7,103.7,0,0,1,11.654,5.949,45.011,45.011,0,0,1,6.814,5.57,7.889,7.889,0,0,1,1.817,2.947,12.283,12.283,0,0,0,2.64,4.1,2.228,2.228,0,0,1,.549,2.953,2.669,2.669,0,0,0-.035,1.787c1.328,4.846,1.351,9.9,2.175,14.829.206,1.233.373,2.477.495,3.724.648,6.635,1.354,13.267,1.867,19.914.175,2.263-.294,4.574-.225,6.854.109,3.548.413,7.089.658,10.631q.4,5.73.84,11.458c.07.9.2,1.8.349,2.685a48.116,48.116,0,0,1,.877,9.116c-.134,7.039-.146,14.087.042,21.124.132,4.936.737,9.855,1.015,14.789.252,4.449.374,8.907.5,13.363.163,5.639.5,11.286.35,16.917-.161,6.123-.718,12.24-1.243,18.345-.389,4.515-.965,9.043-.271,13.537.633,4.1.919,8.248,1.711,12.348,1.056,5.471,2.5,10.8,3.948,16.148.979,3.609,1.968,7.216,2.9,10.838,1.267,4.9,2.487,9.811,3.727,14.717a1.794,1.794,0,0,0,.17.6c1.738,2.369,1.243,5.3,1.653,7.963.656,4.255,1,8.573,1.3,12.878a60.326,60.326,0,0,1-.715,14.9c-.474,2.648-.669,5.358-.919,8.047-.828,8.934-2.111,17.807-3.147,26.711-.707,6.076-.811,12.232-1.19,18.352-.216,3.477-.484,6.951-.658,10.431-.241,4.8-.471,9.6-.6,14.408-.136,5.012-.221,10.029-.193,15.043.024,4.53.1,9.067.392,13.584.349,5.416.926,10.817,1.447,16.221.433,4.5.883,9,1.413,13.482.278,2.346.753,4.666,1.123,7C559.309,956.812,558.888,960.13,558.879,963.573ZM404.385,429.093c-.743,1.407-.322,2.65.322,3.935.519,1.037.825,2.192,1.246,3.286a25.3,25.3,0,0,0,1.4,3.445c1.556,2.732,3.224,5.391,4.856,8.074,1.942,3.193,5.015,5.236,7.3,8.081a2.107,2.107,0,0,0,.492.343c1.23.841,2.519,1.6,3.679,2.541,1.974,1.6,3.812,3.391,5.811,4.951a7.043,7.043,0,0,0,6.586,1.334,9.452,9.452,0,0,1,.965-.172c2.576-.467,5.161-.88,7.719-1.436a5.638,5.638,0,0,0,2.254-1.141c1.4-1.135,2.712-2.4,4.047-3.624,2.557-2.348,5.184-4.617,7.625-7.094a45.347,45.347,0,0,0,3.748-4.821,61.087,61.087,0,0,0,7.153-12.924,65.794,65.794,0,0,0,3.986-15.252c.361-2.264,1.075-4.622.1-6.965a2.192,2.192,0,0,1,.088-1.028c.312-1.92.676-3.832.941-5.76a80.3,80.3,0,0,0,.937-10.6,34.194,34.194,0,0,1,.553-7.9c.927-3.763.517-7.567.9-11.333a32.347,32.347,0,0,0-.8-9.532c-1.384-6.953-2.828-13.827-6.424-19.984-2.119-3.627-4.275-7.2-7.553-9.755a69.532,69.532,0,0,0-5.782-3.876,30.106,30.106,0,0,0-10.5-4.5,68.888,68.888,0,0,0-7.612-.667,26.475,26.475,0,0,0-21.44,6.115c-1.237,1.012-2.643,1.8-3.834,2.866-2.65,2.367-5.208,4.851-7.814,7.273a17.953,17.953,0,0,0-4.8,6.515,62.913,62.913,0,0,0-2.042,7.7,31.848,31.848,0,0,0-.781,3.859c-.2,1.649-.255,3.317-.331,4.979-.115,2.54-.706,5.1.2,7.611a2.335,2.335,0,0,1-.056.819,15.685,15.685,0,0,0-.1,2.244c.17,1.93.481,3.847.629,5.778s.054,3.893.263,5.817c.5,4.559,1.162,9.1,1.662,13.657.462,4.218.731,8.46,1.211,12.676.41,3.6.984,7.169,1.516,10.747C402.911,426.746,403.118,428.14,404.385,429.093Zm-12.222-34.372c-.109.832-.286,1.645-.311,2.463-.075,2.428-.154,4.86-.109,7.288a14.277,14.277,0,0,0,1.693,6.357,6.577,6.577,0,0,0,1.355,1.765,1.608,1.608,0,0,0,2.794-.837,7.067,7.067,0,0,0,.11-2.467c-.378-4.223-.8-8.441-1.22-12.66a8.533,8.533,0,0,0-.308-1.844,2.13,2.13,0,0,0-2.565-1.332l-.287,1.343Zm88.659-.527c-1.286,1.43-2.645,2.625-2.79,4.787-.249,3.721-.663,7.43-.977,11.147a4.313,4.313,0,0,0,.216,1.16c2.087.143,2.042.118,2.942-1.656,2.031-4.007,2.076-8.371,2.145-12.746A2.807,2.807,0,0,0,480.822,394.194Zm66,300.274c-.714,2.735-.714,2.735,0,4.233ZM556.185,937.3l-.277.079q.052.987.1,1.976l.173-.017Zm-2.152-17.014.218-.009-.064-1.129-.154.007Z" fill="none" opacity="0.82"/>
      <g id="Group_15" data-name="Group 15">
        <path id="Path_207" data-name="Path 207" d="M58.261,111.222a8.272,8.272,0,0,0-4.5.5,13.139,13.139,0,0,0-6.5,5.5,75.787,75.787,0,0,0-11.5,33.5s-1.888,32.752-10.523,99.428c-.223,1.721-.569,4.316-.977,8.072a323.989,323.989,0,0,0-1.822,43.011c.424,16.577,1.7,13.3,1.155,19.961-.226,2.776-.559,4.71.667,6.528,2.254,3.34,6.923,2.061,17,3,12.132,1.129,16.827,4.05,20,1,2.148-2.065,2.031-5.361,2-7-.34-17.889,6.207-35.255,8.5-53,2.225-17.212,2.805-21.767,4.5-25a10.929,10.929,0,0,0,1.5-5.834c-.122-2.23-1.013-3.342-2-6-.58-1.563-.87-2.788-1.667-7.666-1.96-12-2.94-18.005-3-22.334a117.332,117.332,0,0,1,1-15c.631-5.96.879-5.733,1.667-12.333,1.063-8.9,1.712-14.6,1-22a57.057,57.057,0,0,0-1.333-8.333c-1.252-5.224-2.36-6.457-4-11.667-2.232-7.091-.918-7.15-3-13C64.883,118.213,62.742,112.2,58.261,111.222Z" transform="matrix(0.999, 0.035, -0.035, 0.999, 298.781, 404.388)" fill="#450a0e"/>
        <path id="Path_205" data-name="Path 205" d="M270.509,111.222a8.272,8.272,0,0,1,4.5.5,13.139,13.139,0,0,1,6.5,5.5,75.787,75.787,0,0,1,11.5,33.5s1.888,32.752,10.523,99.428c.223,1.721.569,4.316.977,8.072a323.992,323.992,0,0,1,1.822,43.011c-.424,16.577-1.7,13.3-1.155,19.961.226,2.776.559,4.71-.667,6.528-2.254,3.34-6.923,2.061-17,3-12.132,1.129-16.828,4.05-20,1-2.148-2.065-2.032-5.361-2-7,.34-17.889-6.207-35.255-8.5-53-2.225-17.212-2.805-21.767-4.5-25a10.92,10.92,0,0,1-1.5-5.834c.122-2.23,1.013-3.342,2-6,.58-1.563.87-2.788,1.666-7.666,1.961-12,2.941-18.005,3-22.334a116.964,116.964,0,0,0-1-15c-.63-5.96-.878-5.733-1.666-12.333-1.063-8.9-1.712-14.6-1-22a57.056,57.056,0,0,1,1.333-8.333c1.252-5.224,2.36-6.457,4-11.667,2.232-7.091.918-7.15,3-13C263.887,118.213,266.027,112.2,270.509,111.222Z" transform="translate(250.13 411)" fill="#450a0e"/>
      </g>
    </g>
  </g>
</svg>
